<svg id="Layer_1" data-name="Layer 1" xmlns="http://www.w3.org/2000/svg" viewBox="0 0 122.88 104.55"><defs><style>.cls-1{fill:#fe0000;}</style></defs><title>speed-2x</title><path d="M42,82.34a42.82,42.82,0,0,1-4.05-10.13A43.2,43.2,0,0,1,76.72,18.29V11.05c0-.11,0-.22,0-.33H68.65a2.41,2.41,0,0,1-2.41-2.41V2.41A2.41,2.41,0,0,1,68.65,0H93a2.42,2.42,0,0,1,2.42,2.41v5.9A2.42,2.42,0,0,1,93,10.72H84.87c0,.11,0,.22,0,.33V18.5h0A43.17,43.17,0,1,1,42,82.34ZM88.22,49.45l2.66,6.44h.39l2.66-6.44h8.37L96.94,61.09l5.36,12.45H93.74L90.85,66.6H90.5l-2.85,6.94H79.47l5.25-12.22L79.47,49.45ZM58.65,56.08l-1-5.75a33.58,33.58,0,0,1,9.68-1.46c1.28,0,2.35,0,3.22.11a11.77,11.77,0,0,1,2.67.58,5.41,5.41,0,0,1,2.2,1.28c1.24,1.23,1.85,3.12,1.85,5.66s-.72,4.42-2.16,5.63S70.64,64.73,66,66.3v1.08H76.89v6.16H57.11V68.72a10.73,10.73,0,0,1,.81-4.12,8.4,8.4,0,0,1,2.43-2.7,12.13,12.13,0,0,1,2.79-1.7l3.32-1.52c1-.47,1.88-.87,2.52-1.17V55.42a28.59,28.59,0,0,0-3.2-.19,30.66,30.66,0,0,0-7.13.85Zm59.83-24.54c1.68-4,1.48-8.19-.92-11-2.88-3.37-8.08-3.76-12.91-1.39a69.74,69.74,0,0,1,13.83,12.38Zm-77.56,0c-1.67-4-1.48-8.19.92-11,2.88-3.37,8.08-3.76,12.91-1.39A70,70,0,0,0,40.92,31.54ZM44.6,70.48A36,36,0,0,0,48,79a35.91,35.91,0,1,0-3.4-8.5Z"/><path class="cls-1" d="M13.25,45.25a3.47,3.47,0,0,1,0-6.94H28.6a3.47,3.47,0,0,1,0,6.94Z"/><path class="cls-1" d="M3.47,65.1a3.47,3.47,0,1,1,0-6.93H24.86a3.47,3.47,0,0,1,0,6.93Z"/><path class="cls-1" d="M13.43,85.49a3.47,3.47,0,1,1,0-6.94h15.5a3.47,3.47,0,0,1,0,6.94Z"/></svg>